<mxfile host="app.diagrams.net" modified="2022-08-02T07:19:53.046Z" agent="5.0 (Windows NT 10.0; Win64; x64) AppleWebKit/537.36 (KHTML, like Gecko) Chrome/103.0.0.0 Safari/537.36" etag="WKE52ZvwpGph0iOhn45h" version="20.2.2" type="github">
  <diagram name="Page-1" id="13e1069c-82ec-6db2-03f1-153e76fe0fe0">
    <mxGraphModel dx="1422" dy="762" grid="1" gridSize="10" guides="1" tooltips="1" connect="1" arrows="1" fold="1" page="1" pageScale="1" pageWidth="1100" pageHeight="850" background="none" math="0" shadow="0">
      <root>
        <mxCell id="0" />
        <mxCell id="1" parent="0" />
        <mxCell id="7baba1c4bc27f4b0-2" value="nginx" style="shape=umlLifeline;perimeter=lifelinePerimeter;whiteSpace=wrap;html=1;container=1;collapsible=0;recursiveResize=0;outlineConnect=0;rounded=1;shadow=0;comic=0;labelBackgroundColor=none;strokeWidth=1;fontFamily=Verdana;fontSize=12;align=center;" parent="1" vertex="1">
          <mxGeometry x="240" y="80" width="100" height="650" as="geometry" />
        </mxCell>
        <mxCell id="7baba1c4bc27f4b0-10" value="" style="html=1;points=[];perimeter=orthogonalPerimeter;rounded=0;shadow=0;comic=0;labelBackgroundColor=none;strokeWidth=1;fontFamily=Verdana;fontSize=12;align=center;" parent="7baba1c4bc27f4b0-2" vertex="1">
          <mxGeometry x="45" y="100" width="10" height="550" as="geometry" />
        </mxCell>
        <mxCell id="7baba1c4bc27f4b0-4" value="机房（node api）" style="shape=umlLifeline;perimeter=lifelinePerimeter;whiteSpace=wrap;html=1;container=1;collapsible=0;recursiveResize=0;outlineConnect=0;rounded=1;shadow=0;comic=0;labelBackgroundColor=none;strokeWidth=1;fontFamily=Verdana;fontSize=12;align=center;" parent="1" vertex="1">
          <mxGeometry x="540" y="80" width="100" height="580" as="geometry" />
        </mxCell>
        <mxCell id="7baba1c4bc27f4b0-5" value="上证H5 SDK" style="shape=umlLifeline;perimeter=lifelinePerimeter;whiteSpace=wrap;html=1;container=1;collapsible=0;recursiveResize=0;outlineConnect=0;rounded=1;shadow=0;comic=0;labelBackgroundColor=none;strokeWidth=1;fontFamily=Verdana;fontSize=12;align=center;" parent="1" vertex="1">
          <mxGeometry x="680" y="80" width="100" height="580" as="geometry" />
        </mxCell>
        <mxCell id="7baba1c4bc27f4b0-6" value="上证服务器1" style="shape=umlLifeline;perimeter=lifelinePerimeter;whiteSpace=wrap;html=1;container=1;collapsible=0;recursiveResize=0;outlineConnect=0;rounded=1;shadow=0;comic=0;labelBackgroundColor=none;strokeWidth=1;fontFamily=Verdana;fontSize=12;align=center;" parent="1" vertex="1">
          <mxGeometry x="820" y="80" width="100" height="640" as="geometry" />
        </mxCell>
        <mxCell id="7baba1c4bc27f4b0-8" value="商城" style="shape=umlLifeline;perimeter=lifelinePerimeter;whiteSpace=wrap;html=1;container=1;collapsible=0;recursiveResize=0;outlineConnect=0;rounded=1;shadow=0;comic=0;labelBackgroundColor=none;strokeWidth=1;fontFamily=Verdana;fontSize=12;align=center;" parent="1" vertex="1">
          <mxGeometry x="100" y="80" width="100" height="650" as="geometry" />
        </mxCell>
        <mxCell id="7baba1c4bc27f4b0-9" value="" style="html=1;points=[];perimeter=orthogonalPerimeter;rounded=0;shadow=0;comic=0;labelBackgroundColor=none;strokeWidth=1;fontFamily=Verdana;fontSize=12;align=center;" parent="7baba1c4bc27f4b0-8" vertex="1">
          <mxGeometry x="45" y="100" width="10" height="550" as="geometry" />
        </mxCell>
        <mxCell id="7baba1c4bc27f4b0-16" value="" style="html=1;points=[];perimeter=orthogonalPerimeter;rounded=0;shadow=0;comic=0;labelBackgroundColor=none;strokeWidth=1;fontFamily=Verdana;fontSize=12;align=center;" parent="1" vertex="1">
          <mxGeometry x="585" y="190" width="10" height="560" as="geometry" />
        </mxCell>
        <mxCell id="7baba1c4bc27f4b0-19" value="" style="html=1;points=[];perimeter=orthogonalPerimeter;rounded=0;shadow=0;comic=0;labelBackgroundColor=none;strokeWidth=1;fontFamily=Verdana;fontSize=12;align=center;" parent="1" vertex="1">
          <mxGeometry x="725" y="230" width="10" height="510" as="geometry" />
        </mxCell>
        <mxCell id="7baba1c4bc27f4b0-11" value="https://estock.xyzq.cn/nodeapi/stk/markets/realtime?codes=xxxx" style="html=1;verticalAlign=bottom;endArrow=block;entryX=0;entryY=0;labelBackgroundColor=none;fontFamily=Verdana;fontSize=12;edgeStyle=elbowEdgeStyle;elbow=vertical;" parent="1" source="7baba1c4bc27f4b0-9" target="7baba1c4bc27f4b0-10" edge="1">
          <mxGeometry relative="1" as="geometry">
            <mxPoint x="220" y="190" as="sourcePoint" />
          </mxGeometry>
        </mxCell>
        <mxCell id="7baba1c4bc27f4b0-40" value="Note" style="shape=note;whiteSpace=wrap;html=1;size=14;verticalAlign=top;align=left;spacingTop=-6;rounded=0;shadow=0;comic=0;labelBackgroundColor=none;strokeWidth=1;fontFamily=Verdana;fontSize=12" parent="1" vertex="1">
          <mxGeometry x="100" y="30" width="100" height="35" as="geometry" />
        </mxCell>
        <mxCell id="7baba1c4bc27f4b0-41" value="Note" style="shape=note;whiteSpace=wrap;html=1;size=14;verticalAlign=top;align=left;spacingTop=-6;rounded=0;shadow=0;comic=0;labelBackgroundColor=none;strokeWidth=1;fontFamily=Verdana;fontSize=12" parent="1" vertex="1">
          <mxGeometry x="240" y="30" width="100" height="35" as="geometry" />
        </mxCell>
        <mxCell id="7baba1c4bc27f4b0-43" value="Note" style="shape=note;whiteSpace=wrap;html=1;size=14;verticalAlign=top;align=left;spacingTop=-6;rounded=0;shadow=0;comic=0;labelBackgroundColor=none;strokeWidth=1;fontFamily=Verdana;fontSize=12" parent="1" vertex="1">
          <mxGeometry x="540" y="30" width="100" height="35" as="geometry" />
        </mxCell>
        <mxCell id="7baba1c4bc27f4b0-44" value="Note" style="shape=note;whiteSpace=wrap;html=1;size=14;verticalAlign=top;align=left;spacingTop=-6;rounded=0;shadow=0;comic=0;labelBackgroundColor=none;strokeWidth=1;fontFamily=Verdana;fontSize=12" parent="1" vertex="1">
          <mxGeometry x="680" y="30" width="100" height="35" as="geometry" />
        </mxCell>
        <mxCell id="7baba1c4bc27f4b0-45" value="Note" style="shape=note;whiteSpace=wrap;html=1;size=14;verticalAlign=top;align=left;spacingTop=-6;rounded=0;shadow=0;comic=0;labelBackgroundColor=none;strokeWidth=1;fontFamily=Verdana;fontSize=12" parent="1" vertex="1">
          <mxGeometry x="820" y="30" width="100" height="35" as="geometry" />
        </mxCell>
        <mxCell id="XBLzVfoAU-3kD3fllj1F-6" value="" style="endArrow=classic;html=1;rounded=0;exitX=0.9;exitY=0.217;exitDx=0;exitDy=0;exitPerimeter=0;" edge="1" parent="1">
          <mxGeometry width="50" height="50" relative="1" as="geometry">
            <mxPoint x="294" y="237.6500000000001" as="sourcePoint" />
            <mxPoint x="589.5" y="237.6500000000001" as="targetPoint" />
          </mxGeometry>
        </mxCell>
        <mxCell id="XBLzVfoAU-3kD3fllj1F-9" value="反向代理" style="edgeLabel;html=1;align=center;verticalAlign=middle;resizable=0;points=[];" vertex="1" connectable="0" parent="XBLzVfoAU-3kD3fllj1F-6">
          <mxGeometry x="-0.2893" y="-1" relative="1" as="geometry">
            <mxPoint as="offset" />
          </mxGeometry>
        </mxCell>
        <mxCell id="XBLzVfoAU-3kD3fllj1F-7" value="" style="endArrow=classic;html=1;rounded=0;" edge="1" parent="1">
          <mxGeometry width="50" height="50" relative="1" as="geometry">
            <mxPoint x="600" y="413" as="sourcePoint" />
            <mxPoint x="725" y="413" as="targetPoint" />
          </mxGeometry>
        </mxCell>
        <mxCell id="XBLzVfoAU-3kD3fllj1F-11" value="调用，同时开启5s等待定时器" style="edgeLabel;html=1;align=center;verticalAlign=middle;resizable=0;points=[];" vertex="1" connectable="0" parent="XBLzVfoAU-3kD3fllj1F-7">
          <mxGeometry x="0.152" y="1" relative="1" as="geometry">
            <mxPoint x="-36" y="-12" as="offset" />
          </mxGeometry>
        </mxCell>
        <mxCell id="XBLzVfoAU-3kD3fllj1F-12" value="上证服务器2" style="rounded=1;whiteSpace=wrap;html=1;" vertex="1" parent="1">
          <mxGeometry x="960" y="80" width="100" height="40" as="geometry" />
        </mxCell>
        <mxCell id="XBLzVfoAU-3kD3fllj1F-14" value="" style="endArrow=none;dashed=1;html=1;rounded=0;entryX=0.5;entryY=1;entryDx=0;entryDy=0;" edge="1" parent="1" target="XBLzVfoAU-3kD3fllj1F-12">
          <mxGeometry width="50" height="50" relative="1" as="geometry">
            <mxPoint x="1010" y="720" as="sourcePoint" />
            <mxPoint x="610" y="360" as="targetPoint" />
          </mxGeometry>
        </mxCell>
        <mxCell id="XBLzVfoAU-3kD3fllj1F-15" value="" style="endArrow=classic;html=1;rounded=0;exitX=0.9;exitY=0.64;exitDx=0;exitDy=0;exitPerimeter=0;" edge="1" parent="1">
          <mxGeometry width="50" height="50" relative="1" as="geometry">
            <mxPoint x="734" y="288" as="sourcePoint" />
            <mxPoint x="869.5" y="288" as="targetPoint" />
            <Array as="points">
              <mxPoint x="800" y="288" />
            </Array>
          </mxGeometry>
        </mxCell>
        <mxCell id="XBLzVfoAU-3kD3fllj1F-17" value="ping测速" style="edgeLabel;html=1;align=center;verticalAlign=middle;resizable=0;points=[];" vertex="1" connectable="0" parent="XBLzVfoAU-3kD3fllj1F-15">
          <mxGeometry x="0.1956" relative="1" as="geometry">
            <mxPoint as="offset" />
          </mxGeometry>
        </mxCell>
        <mxCell id="XBLzVfoAU-3kD3fllj1F-16" value="" style="endArrow=classic;html=1;rounded=0;" edge="1" parent="1">
          <mxGeometry width="50" height="50" relative="1" as="geometry">
            <mxPoint x="729.5" y="314" as="sourcePoint" />
            <mxPoint x="1010" y="314" as="targetPoint" />
          </mxGeometry>
        </mxCell>
        <mxCell id="XBLzVfoAU-3kD3fllj1F-18" value="ping测速" style="edgeLabel;html=1;align=center;verticalAlign=middle;resizable=0;points=[];" vertex="1" connectable="0" parent="XBLzVfoAU-3kD3fllj1F-16">
          <mxGeometry x="0.2086" y="2" relative="1" as="geometry">
            <mxPoint as="offset" />
          </mxGeometry>
        </mxCell>
        <mxCell id="XBLzVfoAU-3kD3fllj1F-19" value="" style="endArrow=classic;html=1;rounded=0;entryX=1.1;entryY=0.67;entryDx=0;entryDy=0;entryPerimeter=0;dashed=1;" edge="1" parent="1">
          <mxGeometry width="50" height="50" relative="1" as="geometry">
            <mxPoint x="869.5" y="303.79999999999995" as="sourcePoint" />
            <mxPoint x="736" y="303.79999999999995" as="targetPoint" />
          </mxGeometry>
        </mxCell>
        <mxCell id="XBLzVfoAU-3kD3fllj1F-20" value="" style="endArrow=classic;html=1;rounded=0;dashed=1;" edge="1" parent="1" target="7baba1c4bc27f4b0-19">
          <mxGeometry width="50" height="50" relative="1" as="geometry">
            <mxPoint x="1010" y="330" as="sourcePoint" />
            <mxPoint x="740" y="330" as="targetPoint" />
          </mxGeometry>
        </mxCell>
        <mxCell id="XBLzVfoAU-3kD3fllj1F-22" value="" style="curved=1;endArrow=none;html=1;rounded=0;dashed=1;endFill=0;startArrow=classic;startFill=1;" edge="1" parent="1">
          <mxGeometry width="50" height="50" relative="1" as="geometry">
            <mxPoint x="730" y="393" as="sourcePoint" />
            <mxPoint x="740" y="340" as="targetPoint" />
            <Array as="points">
              <mxPoint x="788" y="393" />
            </Array>
          </mxGeometry>
        </mxCell>
        <mxCell id="XBLzVfoAU-3kD3fllj1F-23" value="按测速速度从快到慢记录站点" style="edgeLabel;html=1;align=center;verticalAlign=middle;resizable=0;points=[];" vertex="1" connectable="0" parent="XBLzVfoAU-3kD3fllj1F-22">
          <mxGeometry x="-0.5568" y="10" relative="1" as="geometry">
            <mxPoint x="1" y="-7" as="offset" />
          </mxGeometry>
        </mxCell>
        <mxCell id="XBLzVfoAU-3kD3fllj1F-24" value="" style="endArrow=classic;html=1;rounded=0;" edge="1" parent="1" source="7baba1c4bc27f4b0-19">
          <mxGeometry width="50" height="50" relative="1" as="geometry">
            <mxPoint x="560" y="410" as="sourcePoint" />
            <mxPoint x="1010" y="440" as="targetPoint" />
          </mxGeometry>
        </mxCell>
        <mxCell id="XBLzVfoAU-3kD3fllj1F-25" value="向最快站点发起请求" style="edgeLabel;html=1;align=center;verticalAlign=middle;resizable=0;points=[];" vertex="1" connectable="0" parent="XBLzVfoAU-3kD3fllj1F-24">
          <mxGeometry x="0.1345" y="-3" relative="1" as="geometry">
            <mxPoint as="offset" />
          </mxGeometry>
        </mxCell>
        <mxCell id="XBLzVfoAU-3kD3fllj1F-26" value="" style="endArrow=classic;html=1;rounded=0;dashed=1;" edge="1" parent="1" target="7baba1c4bc27f4b0-5">
          <mxGeometry width="50" height="50" relative="1" as="geometry">
            <mxPoint x="1010" y="470" as="sourcePoint" />
            <mxPoint x="610" y="360" as="targetPoint" />
          </mxGeometry>
        </mxCell>
        <mxCell id="XBLzVfoAU-3kD3fllj1F-27" value="返回数据" style="edgeLabel;html=1;align=center;verticalAlign=middle;resizable=0;points=[];" vertex="1" connectable="0" parent="XBLzVfoAU-3kD3fllj1F-26">
          <mxGeometry x="-0.2299" y="-2" relative="1" as="geometry">
            <mxPoint as="offset" />
          </mxGeometry>
        </mxCell>
        <mxCell id="XBLzVfoAU-3kD3fllj1F-28" value="" style="endArrow=classic;html=1;rounded=0;dashed=1;exitX=0.2;exitY=0.797;exitDx=0;exitDy=0;exitPerimeter=0;" edge="1" parent="1">
          <mxGeometry width="50" height="50" relative="1" as="geometry">
            <mxPoint x="727" y="487.71000000000004" as="sourcePoint" />
            <mxPoint x="595" y="487.71000000000004" as="targetPoint" />
          </mxGeometry>
        </mxCell>
        <mxCell id="XBLzVfoAU-3kD3fllj1F-29" value="返回数据" style="edgeLabel;html=1;align=center;verticalAlign=middle;resizable=0;points=[];" vertex="1" connectable="0" parent="XBLzVfoAU-3kD3fllj1F-28">
          <mxGeometry x="-0.1515" y="-1" relative="1" as="geometry">
            <mxPoint x="1" y="-2" as="offset" />
          </mxGeometry>
        </mxCell>
        <mxCell id="XBLzVfoAU-3kD3fllj1F-37" value="" style="swimlane;startSize=0;" vertex="1" parent="1">
          <mxGeometry x="50" y="460" width="1000" height="80" as="geometry">
            <mxRectangle x="50" y="460" width="50" height="40" as="alternateBounds" />
          </mxGeometry>
        </mxCell>
        <mxCell id="XBLzVfoAU-3kD3fllj1F-38" value="上证H5 SDk 5s内返回" style="text;html=1;align=center;verticalAlign=middle;resizable=0;points=[];autosize=1;strokeColor=none;fillColor=none;" vertex="1" parent="XBLzVfoAU-3kD3fllj1F-37">
          <mxGeometry x="-10" width="140" height="30" as="geometry" />
        </mxCell>
        <mxCell id="XBLzVfoAU-3kD3fllj1F-39" value="" style="endArrow=classic;html=1;rounded=0;dashed=1;" edge="1" parent="1" source="7baba1c4bc27f4b0-16">
          <mxGeometry width="50" height="50" relative="1" as="geometry">
            <mxPoint x="560" y="497" as="sourcePoint" />
            <mxPoint x="289.5" y="497" as="targetPoint" />
          </mxGeometry>
        </mxCell>
        <mxCell id="XBLzVfoAU-3kD3fllj1F-44" value="返回数据" style="edgeLabel;html=1;align=center;verticalAlign=middle;resizable=0;points=[];" vertex="1" connectable="0" parent="XBLzVfoAU-3kD3fllj1F-39">
          <mxGeometry x="-0.0728" y="-2" relative="1" as="geometry">
            <mxPoint as="offset" />
          </mxGeometry>
        </mxCell>
        <mxCell id="XBLzVfoAU-3kD3fllj1F-41" value="" style="endArrow=classic;html=1;rounded=0;dashed=1;" edge="1" parent="1" target="7baba1c4bc27f4b0-9">
          <mxGeometry width="50" height="50" relative="1" as="geometry">
            <mxPoint x="280" y="518" as="sourcePoint" />
            <mxPoint x="610" y="350" as="targetPoint" />
            <Array as="points">
              <mxPoint x="220" y="518" />
            </Array>
          </mxGeometry>
        </mxCell>
        <mxCell id="XBLzVfoAU-3kD3fllj1F-45" value="返回数据" style="edgeLabel;html=1;align=center;verticalAlign=middle;resizable=0;points=[];" vertex="1" connectable="0" parent="XBLzVfoAU-3kD3fllj1F-41">
          <mxGeometry x="0.2064" y="-1" relative="1" as="geometry">
            <mxPoint as="offset" />
          </mxGeometry>
        </mxCell>
        <mxCell id="XBLzVfoAU-3kD3fllj1F-47" value="" style="swimlane;startSize=0;" vertex="1" parent="1">
          <mxGeometry x="50" y="580" width="1000" height="140" as="geometry">
            <mxRectangle x="50" y="580" width="50" height="40" as="alternateBounds" />
          </mxGeometry>
        </mxCell>
        <mxCell id="XBLzVfoAU-3kD3fllj1F-48" value="上证H5 SDK&lt;br&gt;超过5s返回" style="text;html=1;align=center;verticalAlign=middle;resizable=0;points=[];autosize=1;strokeColor=none;fillColor=none;" vertex="1" parent="XBLzVfoAU-3kD3fllj1F-47">
          <mxGeometry x="5" width="90" height="40" as="geometry" />
        </mxCell>
        <mxCell id="XBLzVfoAU-3kD3fllj1F-49" value="" style="endArrow=classic;html=1;rounded=0;dashed=1;exitX=0;exitY=0.882;exitDx=0;exitDy=0;exitPerimeter=0;" edge="1" parent="1">
          <mxGeometry width="50" height="50" relative="1" as="geometry">
            <mxPoint x="585" y="632.8199999999999" as="sourcePoint" />
            <mxPoint x="295" y="632.8199999999999" as="targetPoint" />
          </mxGeometry>
        </mxCell>
        <mxCell id="XBLzVfoAU-3kD3fllj1F-50" value="返回超时" style="edgeLabel;html=1;align=center;verticalAlign=middle;resizable=0;points=[];" vertex="1" connectable="0" parent="XBLzVfoAU-3kD3fllj1F-49">
          <mxGeometry x="0.1241" y="-1" relative="1" as="geometry">
            <mxPoint as="offset" />
          </mxGeometry>
        </mxCell>
        <mxCell id="XBLzVfoAU-3kD3fllj1F-51" value="" style="endArrow=classic;html=1;rounded=0;dashed=1;entryX=1.2;entryY=0.877;entryDx=0;entryDy=0;entryPerimeter=0;" edge="1" parent="1" source="7baba1c4bc27f4b0-10" target="7baba1c4bc27f4b0-9">
          <mxGeometry width="50" height="50" relative="1" as="geometry">
            <mxPoint x="560" y="450" as="sourcePoint" />
            <mxPoint x="610" y="400" as="targetPoint" />
          </mxGeometry>
        </mxCell>
        <mxCell id="XBLzVfoAU-3kD3fllj1F-52" value="返回超时" style="edgeLabel;html=1;align=center;verticalAlign=middle;resizable=0;points=[];" vertex="1" connectable="0" parent="XBLzVfoAU-3kD3fllj1F-51">
          <mxGeometry x="-0.1875" relative="1" as="geometry">
            <mxPoint as="offset" />
          </mxGeometry>
        </mxCell>
        <mxCell id="XBLzVfoAU-3kD3fllj1F-53" value="" style="endArrow=classic;html=1;rounded=0;dashed=1;entryX=1.2;entryY=0.867;entryDx=0;entryDy=0;entryPerimeter=0;" edge="1" parent="1">
          <mxGeometry width="50" height="50" relative="1" as="geometry">
            <mxPoint x="1011" y="653" as="sourcePoint" />
            <mxPoint x="738" y="653.1599999999999" as="targetPoint" />
          </mxGeometry>
        </mxCell>
        <mxCell id="XBLzVfoAU-3kD3fllj1F-54" value="返回数据" style="edgeLabel;html=1;align=center;verticalAlign=middle;resizable=0;points=[];" vertex="1" connectable="0" parent="XBLzVfoAU-3kD3fllj1F-53">
          <mxGeometry x="0.1062" y="2" relative="1" as="geometry">
            <mxPoint as="offset" />
          </mxGeometry>
        </mxCell>
        <mxCell id="XBLzVfoAU-3kD3fllj1F-55" value="" style="endArrow=classic;html=1;rounded=0;dashed=1;entryX=1;entryY=0.931;entryDx=0;entryDy=0;entryPerimeter=0;" edge="1" parent="1">
          <mxGeometry width="50" height="50" relative="1" as="geometry">
            <mxPoint x="725" y="671" as="sourcePoint" />
            <mxPoint x="595" y="672.3600000000001" as="targetPoint" />
          </mxGeometry>
        </mxCell>
        <mxCell id="XBLzVfoAU-3kD3fllj1F-56" value="返回数据" style="edgeLabel;html=1;align=center;verticalAlign=middle;resizable=0;points=[];" vertex="1" connectable="0" parent="XBLzVfoAU-3kD3fllj1F-55">
          <mxGeometry x="-0.1538" y="-1" relative="1" as="geometry">
            <mxPoint as="offset" />
          </mxGeometry>
        </mxCell>
        <mxCell id="XBLzVfoAU-3kD3fllj1F-57" value="" style="curved=1;endArrow=classic;html=1;rounded=0;dashed=1;" edge="1" parent="1">
          <mxGeometry width="50" height="50" relative="1" as="geometry">
            <mxPoint x="560" y="450" as="sourcePoint" />
            <mxPoint x="610" y="400" as="targetPoint" />
            <Array as="points">
              <mxPoint x="610" y="450" />
              <mxPoint x="560" y="400" />
            </Array>
          </mxGeometry>
        </mxCell>
      </root>
    </mxGraphModel>
  </diagram>
</mxfile>
